<?xml version="1.0" standalone="no"?>
<!DOCTYPE svg PUBLIC "-//W3C//DTD SVG 20010904//EN"
 "http://www.w3.org/TR/2001/REC-SVG-20010904/DTD/svg10.dtd">
<svg version="1.0" xmlns="http://www.w3.org/2000/svg"
 width="1000.000000pt" height="1000.000000pt" viewBox="0 0 1000.000000 1000.000000"
 preserveAspectRatio="xMidYMid meet">
<metadata>
Created by potrace 1.11, written by Peter Selinger 2001-2013
</metadata>
<g transform="translate(0.000000,1000.000000) scale(0.100000,-0.100000)"
fill="#000000" stroke="none">
<path d="M2980 9758 c-130 -149 -227 -250 -249 -262 -49 -26 -280 -117 -312
-123 -51 -9 -135 -115 -325 -407 l-188 -288 25 -19 c13 -10 30 -19 37 -19 23
0 8 -53 -43 -150 -38 -74 -215 -636 -215 -685 0 -36 34 -65 74 -65 l34 0 -4
-72 c-11 -209 -12 -405 -3 -698 11 -350 12 -356 66 -379 l29 -12 -19 -144 -19
-143 82 -254 c45 -139 93 -288 107 -331 18 -57 31 -81 48 -89 17 -8 31 -36 59
-117 22 -63 89 -206 165 -351 l128 -245 134 -118 134 -119 41 -121 c22 -67 96
-279 165 -471 108 -304 127 -352 151 -365 14 -9 31 -29 37 -46 8 -24 10 -12 6
59 -2 48 -2 86 1 84 2 -3 13 -56 23 -119 30 -178 162 -852 172 -874 5 -11 67
-306 139 -655 72 -349 135 -658 142 -687 l11 -51 -84 -150 -84 -150 -459 -308
c-357 -241 -489 -324 -595 -375 -75 -37 -296 -144 -491 -238 -195 -95 -362
-178 -370 -186 -12 -13 210 -15 1784 -15 l1798 0 -25 42 c-14 24 -76 125 -138
224 l-114 182 -182 158 c-127 110 -183 164 -183 179 0 11 -38 214 -85 450 -47
237 -85 438 -85 448 0 9 -7 17 -16 17 -21 0 -23 13 76 -489 44 -223 78 -406
76 -409 -3 -3 -602 516 -680 589 -16 15 -18 22 -8 43 6 14 7 26 2 28 -6 2
-211 971 -293 1388 -3 14 -66 320 -141 680 -76 360 -160 765 -187 900 -28 135
-51 246 -52 247 -1 0 -67 20 -147 43 l-145 42 -103 102 c-57 55 -124 129 -149
164 -25 34 -102 183 -171 330 -104 222 -127 280 -138 347 -8 44 -14 94 -14
112 l0 32 65 -6 65 -6 0 162 c0 151 1 161 19 161 32 0 122 -68 278 -211 81
-75 234 -213 338 -307 l190 -171 9 88 9 88 141 -65 c108 -51 195 -103 371
-222 l230 -157 410 33 c548 44 1102 84 1173 84 l58 0 36 63 c46 78 245 463
253 488 7 22 16 25 135 39 52 6 102 13 111 16 21 6 137 -149 272 -361 l96
-150 36 -255 c20 -140 38 -264 40 -276 3 -16 19 -25 67 -38 93 -26 201 -81
236 -120 36 -41 49 -105 36 -169 l-9 -42 -60 -5 -60 -5 -174 -142 -175 -143
-210 -2 -211 -3 -3 -27 -3 -28 223 0 224 0 120 98 c130 107 274 192 323 192
26 0 37 -8 67 -50 20 -27 42 -50 50 -50 21 0 17 10 -25 68 -35 48 -38 57 -29
85 5 18 10 64 10 102 1 85 -21 136 -83 189 -41 35 -160 91 -220 103 -18 3 -34
14 -38 27 -11 28 -75 495 -70 500 7 7 941 88 946 82 6 -6 -10 -81 -129 -616
l-90 -405 -69 -145 c-38 -80 -69 -152 -69 -160 0 -8 -12 -69 -26 -135 -32
-141 5 -88 -443 -635 l-292 -355 -121 -238 c-92 -180 -126 -238 -142 -242 -12
-2 -148 -16 -304 -31 l-282 -27 -188 83 c-103 45 -463 222 -799 392 l-613 310
-183 252 c-182 249 -218 286 -225 231 -2 -18 183 -283 332 -476 l44 -56 607
-308 c456 -231 605 -311 601 -322 -10 -25 64 -567 124 -908 55 -313 60 -331
85 -353 l28 -23 -17 -312 c-40 -746 -45 -847 -51 -935 l-7 -92 1061 0 1061 0
0 110 c0 71 -5 122 -14 143 -12 28 -91 76 -682 414 -368 211 -683 392 -701
402 -18 11 -40 36 -50 55 -14 27 -73 72 -273 207 -140 94 -258 174 -262 178
-18 16 -167 965 -153 979 1 1 58 -23 127 -53 l125 -56 347 34 c300 30 350 37
366 53 10 11 76 131 146 267 l127 249 211 256 c117 142 269 328 338 414 l126
158 20 87 c11 49 26 122 32 163 10 63 27 105 105 257 l93 182 102 503 c83 407
106 506 122 521 16 13 39 17 113 17 62 0 96 4 102 13 14 18 267 887 260 893
-3 3 -78 8 -167 11 l-162 6 6 46 c3 25 22 204 41 396 20 193 47 456 60 585 14
129 25 254 25 278 0 26 -14 79 -36 135 l-37 92 -5 196 -4 195 88 -13 c49 -7
154 -14 234 -15 l145 -3 27 104 27 103 -55 212 c-31 116 -64 241 -74 278 l-18
66 36 7 c50 9 92 33 92 51 0 20 -176 219 -357 404 -136 139 -147 147 -225 180
l-83 35 -35 71 c-19 40 -41 79 -49 89 -41 47 60 45 -2231 45 l-2147 0 -213
-242z m4123 -1503 c143 -86 139 -80 196 -261 45 -141 69 -236 141 -539 35
-148 58 -649 33 -711 -8 -20 -14 -18 -161 54 l-152 76 -358 -86 -357 -85 -63
-174 c-34 -96 -65 -183 -68 -193 -8 -23 -44 -28 426 53 195 34 427 72 515 86
88 14 171 28 184 31 21 5 23 3 16 -23 -3 -15 -8 -29 -9 -30 -1 -2 -138 -23
-303 -48 -202 -30 -345 -46 -435 -48 -113 -3 -144 -8 -208 -30 -44 -16 -156
-40 -270 -58 -215 -34 -155 -33 -770 -9 -277 11 -303 13 -400 33 l-65 14 145
6 c80 4 264 12 410 18 146 6 267 13 269 15 4 3 -117 293 -128 306 -6 8 -101
18 -626 68 -176 17 -351 34 -390 38 -51 5 -108 1 -210 -14 -140 -20 -140 -20
-440 -148 -165 -71 -304 -132 -309 -136 -8 -8 28 -164 44 -190 5 -9 58 -4 218
19 202 30 215 31 373 21 90 -5 224 -10 298 -10 74 0 132 -2 130 -5 -3 -2 -196
-27 -429 -55 -234 -28 -515 -62 -625 -75 -176 -22 -220 -24 -360 -17 -158 7
-160 8 -129 24 19 10 34 29 38 44 4 15 23 62 41 103 23 50 44 127 64 226 16
83 41 211 56 285 15 74 32 187 39 250 l12 115 29 -112 c16 -62 31 -113 34
-113 3 0 27 69 53 153 43 138 49 167 59 312 6 88 17 205 23 260 l12 100 27
-59 c15 -32 29 -57 31 -55 1 2 30 83 64 180 59 168 61 179 53 230 -5 30 -12
80 -16 112 -7 65 -5 66 62 39 35 -15 61 -16 160 -10 118 7 377 22 657 37 81 5
225 5 320 0 94 -4 239 -11 321 -14 135 -5 164 -10 297 -47 l147 -41 158 56
158 56 290 14 c160 8 356 15 438 16 l148 1 92 -55z m322 -1982 c-4 -38 -11
-84 -16 -104 -7 -27 0 -90 31 -270 22 -128 36 -236 32 -240 -4 -3 -221 -34
-482 -67 -364 -47 -476 -59 -482 -49 -4 7 -49 116 -99 242 -50 127 -93 233
-95 237 -5 8 96 131 103 125 2 -3 11 -35 18 -72 8 -37 24 -88 36 -112 l22 -45
116 7 c64 4 145 10 181 14 l65 6 13 40 c14 40 12 164 -4 213 l-7 24 54 -27
c83 -43 137 -82 220 -163 43 -40 79 -69 82 -64 7 9 -103 120 -168 170 -23 17
-74 48 -114 70 -72 39 -73 40 -43 47 55 12 188 -67 249 -148 32 -42 34 -43 62
-19 l21 17 -37 44 c-21 24 -63 63 -94 86 l-57 42 197 30 c108 17 197 31 199
32 2 0 1 -29 -3 -66z m496 38 c14 -5 7 -34 -48 -211 -35 -113 -74 -250 -87
-305 l-23 -100 -42 -6 c-22 -3 -41 -3 -41 0 1 3 5 26 10 51 5 25 21 155 35
290 34 334 22 300 108 293 40 -3 79 -9 88 -12z m-3196 -157 c-92 -61 -273
-265 -263 -295 2 -7 21 12 42 42 52 72 135 168 155 178 15 8 16 2 13 -59 -3
-56 0 -78 18 -115 l23 -47 178 4 c129 2 182 7 191 16 8 8 14 45 16 95 3 64 -1
94 -17 136 l-20 53 67 -7 c44 -4 82 -16 111 -32 46 -27 203 -177 238 -227 11
-16 23 -24 26 -19 9 15 -97 138 -175 203 -67 55 -69 76 -5 45 19 -9 62 -39 97
-66 l63 -51 20 21 21 20 -40 36 -39 36 35 -5 c19 -3 70 -8 113 -12 42 -3 77
-9 77 -13 0 -7 -182 -644 -186 -649 -2 -4 -1477 -103 -1479 -99 -1 1 -25 80
-54 175 -44 147 -52 188 -56 280 -3 59 -8 144 -10 189 l-5 82 32 6 c33 5 603
75 616 75 3 0 -12 -19 -34 -42 -23 -24 -53 -60 -68 -80 l-27 -37 26 -17 c25
-16 28 -16 36 -2 20 37 101 128 140 159 38 30 71 41 149 48 8 0 -3 -11 -25
-25z m1633 -35 l-53 -61 -12 28 c-10 26 -9 32 14 56 14 15 35 29 47 31 57 11
58 7 4 -54z"/>
<path d="M2430 5861 c-15 -4 -26 -15 -28 -29 -3 -20 0 -21 40 -16 33 4 56 0
101 -20 74 -34 150 -102 138 -125 -5 -9 -22 -67 -39 -129 l-30 -112 114 -101
c67 -60 114 -109 114 -119 0 -10 -7 -49 -16 -86 -16 -70 -11 -89 22 -82 25 4
71 197 51 213 -63 49 -217 191 -217 199 0 25 35 146 42 146 5 0 88 -41 186
-91 121 -63 169 -84 152 -66 -14 14 -115 102 -224 196 -246 212 -312 248 -406
222z"/>
<path d="M5605 4809 c-205 -14 -293 -32 -328 -68 -51 -51 -48 -169 8 -296 l22
-50 134 -54 c74 -29 139 -55 145 -57 6 -3 16 8 23 23 7 15 9 29 4 31 -4 2 -66
27 -138 55 l-130 53 -22 59 c-28 77 -31 175 -5 197 24 22 124 36 355 50 l197
12 0 28 0 28 -67 -1 c-38 -1 -126 -6 -198 -10z"/>
<path d="M5070 4550 c-47 -27 -85 -55 -85 -62 0 -7 5 -12 10 -11 21 3 189 101
193 112 7 22 -35 8 -118 -39z"/>
<path d="M5588 4446 c-38 -11 -68 -23 -68 -27 0 -4 104 -48 231 -99 221 -89
232 -92 269 -81 22 6 42 16 45 21 5 9 -203 115 -360 184 l-50 22 -67 -20z"/>
<path d="M4810 4013 c-55 -21 -83 -93 -35 -93 14 0 29 8 35 20 6 12 21 20 35
20 14 0 118 -38 232 -84 115 -46 371 -147 569 -225 l361 -141 159 26 158 26
146 121 c80 67 175 149 211 183 78 73 121 97 161 92 21 -4 33 1 43 16 20 28 5
40 -52 40 -60 -1 -99 -21 -177 -93 -33 -31 -128 -112 -209 -180 l-148 -124
-142 -23 -142 -23 -305 119 c-168 65 -419 164 -558 218 -244 97 -310 117 -342
105z"/>
<path d="M5951 3863 c-12 -54 -26 -116 -31 -138 -10 -44 -7 -50 31 -59 19 -4
29 -1 33 9 3 9 0 15 -9 15 -25 0 -25 16 0 130 29 131 30 140 11 140 -9 0 -21
-32 -35 -97z"/>
<path d="M5514 3418 c-4 -5 -2 -14 2 -18 5 -5 112 -47 237 -94 l229 -85 114
19 c113 19 116 20 172 69 83 71 106 98 92 106 -6 4 -40 -19 -76 -52 -84 -75
-91 -78 -205 -95 l-96 -14 -231 87 c-135 50 -235 83 -238 77z"/>
<path d="M4951 1897 c-6 -18 -33 -111 -61 -207 -28 -96 -53 -183 -56 -192 -3
-12 0 -18 10 -18 16 0 21 15 101 292 32 112 39 148 29 152 -8 3 -17 -7 -23
-27z"/>
</g>
</svg>
